<svg xmlns="http://www.w3.org/2000/svg" xmlns:xlink="http://www.w3.org/1999/xlink" x="0px" y="0px" width="200px" height="50px" viewBox="0 0 200 50" enable-background="new 0 0 200 50" xml:space="preserve">
<g>
  <g>
    <path fill="#424242" d="M72.785,11.55l-8.298,25.724h-3.751L52.251,11.55h4.456l5.359,18.423c0.316,1.083,0.538,2.13,0.661,3.151
        h0.101c0.032-0.479,0.235-1.529,0.613-3.151L68.9,11.55H72.785z" />
    <path fill="#424242" d="M93.746,23.672L77.673,26.01c0.471,5.794,3.061,8.686,7.775,8.686c2.491,0,4.601-0.491,6.311-1.479
        l1.084,2.77c-1.926,1.174-4.503,1.763-7.733,1.763c-3.473,0-6.205-1.098-8.2-3.291c-2.117-2.327-3.175-5.691-3.175-10.118
        c0-4.266,0.964-7.574,2.892-9.929c1.831-2.228,4.303-3.337,7.396-3.337C90.597,11.073,93.838,15.272,93.746,23.672z
         M89.766,21.906c0-5.408-1.955-8.115-5.86-8.115c-1.952,0-3.478,0.798-4.583,2.386c-1.194,1.72-1.779,4.25-1.746,7.589
        L89.766,21.906z" />
    <path fill="#424242" d="M115.896,37.273h-4.224V18.803c0-3.34-1.773-5.012-5.307-5.012c-1.82,0-3.418,0.303-4.798,0.911v22.572
        h-4.215v-24.39c2.495-1.212,5.608-1.811,9.342-1.811c3.257,0,5.674,0.813,7.251,2.435c1.296,1.335,1.95,3.068,1.95,5.203V37.273z" />
    <path fill="#424242" d="M137.851,35.939c-1.964,1.209-4.633,1.81-8.016,1.81c-3.57,0-6.339-1.163-8.3-3.488
        c-1.957-2.327-2.935-5.481-2.935-9.463c0-4.211,1.022-7.545,3.078-9.997c1.991-2.358,4.661-3.539,8.015-3.539
        c1.327,0,2.675,0.207,4.031,0.624V-0.193h4.126V35.939z M133.725,34.267V14.171c-1.17-0.311-2.23-0.473-3.174-0.473
        c-2.754,0-4.797,1.103-6.125,3.301c-1.133,1.815-1.701,4.303-1.701,7.46c0,7.013,2.435,10.524,7.303,10.524
        C131.765,34.983,132.999,34.744,133.725,34.267z" />
    <path fill="#424242" d="M158.43,35.939c-2.146,1.209-4.978,1.81-8.486,1.81c-6.48,0-9.725-2.531-9.725-7.588
        c0-3.146,1.388-5.504,4.178-7.061c2.212-1.243,5.579-2.101,10.1-2.577v-1.579c0-3.403-1.882-5.103-5.645-5.103
        c-1.959,0-4.014,0.539-6.168,1.621l-0.993-2.482c2.31-1.272,4.918-1.907,7.823-1.907c5.949,0,8.916,2.788,8.916,8.351V35.939z
         M154.496,34.458v-11.79c-3.572,0.447-6.083,1.127-7.539,2.055c-1.836,1.143-2.748,2.923-2.748,5.346
        c0,3.499,2.02,5.244,6.071,5.244C152.046,35.312,153.452,35.028,154.496,34.458z" />
    <path fill="#424242" d="M180.057,11.55l-8.3,25.724h-3.744l-8.49-25.724h4.459l5.355,18.423c0.319,1.083,0.54,2.13,0.663,3.151
        h0.099c0.031-0.479,0.24-1.529,0.616-3.151l5.457-18.423H180.057z" />
    <path fill="#424242" d="M200.025,24.433c0,3.98-0.789,7.143-2.374,9.498c-1.738,2.548-4.268,3.818-7.586,3.818
        c-3.321,0-5.866-1.271-7.636-3.818c-1.579-2.354-2.373-5.518-2.373-9.498c0-4.039,0.807-7.222,2.42-9.547
        c1.739-2.541,4.255-3.812,7.54-3.812c3.347,0,5.896,1.271,7.635,3.812C199.236,17.181,200.025,20.367,200.025,24.433z
         M195.805,24.433c0-7.125-1.917-10.688-5.739-10.688c-3.857,0-5.791,3.562-5.791,10.688c0,6.938,1.934,10.405,5.791,10.405
        C193.888,34.838,195.805,31.371,195.805,24.433z" />
  </g>
  <path fill="#7CBF43" d="M6.203,24.605 M38.688,24.551 M39.342,14.696L22.475-0.32L5.724,14.592l5.932,5.161l10.819-9.632
      l10.819,9.632L39.342,14.696z" />
  <path fill="#424242" d="M22.461,36.678L0.025,16.743v12.955l22.436,19.83l22.58-19.961V16.574L22.461,36.678z" />
  <path fill="#424242" d="M195.232,6.921h-0.91V6.403h2.405v0.518h-0.905v2.222h-0.59V6.921z M197.111,6.403h0.54l0.563,1.292
      c0.037,0.106,0.088,0.261,0.088,0.261h0.01c0,0,0.035-0.154,0.079-0.261l0.562-1.292h0.544l0.208,2.74h-0.582l-0.104-1.411
      c-0.005-0.093,0.004-0.192,0.004-0.192h-0.009l-0.48,1.104h-0.46l-0.479-1.104h-0.013c0,0,0.013,0.099,0.003,0.192l-0.109,1.411
      h-0.583L197.111,6.403z" />
</g>
</svg>